<svg xmlns="http://www.w3.org/2000/svg" viewBox="-25.9 -2025.9 2651.8 2651.8"><path transform="scale(1 -1)" d="M498 175Q315 175 236.0 244.5Q157 314 157 475Q157 607 175.0 689.5Q193 772 237.5 821.0Q282 870 361 903L676 1035L830 1199Q905 1279 964.5 1327.0Q1024 1375 1090.5 1399.5Q1157 1424 1250.5 1432.0Q1344 1440 1487 1440Q1616 1440 1703.0 1429.5Q1790 1419 1859.0 1386.0Q1928 1353 1999.5 1287.5Q2071 1222 2168 1112L2333 1002Q2385 968 2408.0 941.0Q2431 914 2437.0 873.5Q2443 833 2443 755V300Q2443 245 2406.5 210.5Q2370 176 2315 176H2224V256H2301Q2330 256 2346.5 269.5Q2363 283 2363 311V755Q2363 813 2353.0 847.5Q2343 882 2322.0 905.0Q2301 928 2267 950L2116 1051Q2038 1139 1980.5 1196.0Q1923 1253 1873.5 1286.0Q1824 1319 1771.0 1335.0Q1718 1351 1650.0 1355.5Q1582 1360 1487 1360Q1352 1360 1266.5 1353.5Q1181 1347 1122.0 1326.0Q1063 1305 1011.0 1262.0Q959 1219 891 1147L722 967L378 823Q323 800 292.5 762.0Q262 724 249.5 656.0Q237 588 237 475Q237 348 292.5 301.5Q348 255 498 255ZM715 -40Q634 -40 575.5 -4.5Q517 31 485.5 90.0Q454 149 454 221Q454 292 489.5 351.0Q525 410 584.5 445.0Q644 480 715 480Q786 480 845.0 445.0Q904 410 939.5 351.0Q975 292 975 221Q975 149 935.5 90.0Q896 31 836.5 -4.5Q777 -40 715 -40ZM715 58Q781 58 828.0 106.0Q875 154 875 221Q875 286 828.0 334.0Q781 382 715 382Q648 382 601.0 334.0Q554 286 554 221Q554 154 601.0 106.0Q648 58 715 58ZM183 432 203 514 372 574 432 697Q440 714 434.5 724.5Q429 735 409 735L240 733L279 805H446Q493 805 511.5 772.5Q530 740 509 696L423 518ZM915 175V255H1803V175ZM2001 -40Q1930 -40 1870.5 -4.5Q1811 31 1775.5 90.0Q1740 149 1740 221Q1740 292 1775.5 351.0Q1811 410 1870.5 445.0Q1930 480 2001 480Q2072 480 2131.0 445.0Q2190 410 2225.5 351.0Q2261 292 2261 221Q2261 149 2225.5 90.0Q2190 31 2131.0 -4.5Q2072 -40 2001 -40ZM2001 58Q2067 58 2114.0 106.0Q2161 154 2161 221Q2161 286 2114.0 334.0Q2067 382 2001 382Q1934 382 1887.0 334.0Q1840 286 1840 221Q1840 154 1887.0 106.0Q1934 58 2001 58ZM1006 960H1443V1175Q1354 1175 1295.5 1170.5Q1237 1166 1196.5 1153.0Q1156 1140 1122.5 1115.0Q1089 1090 1050 1049L997 993Q987 982 990.0 971.0Q993 960 1006 960ZM927 880Q872 880 862.0 918.5Q852 957 896 1003L974 1085Q1029 1143 1072.5 1177.0Q1116 1211 1167.0 1228.0Q1218 1245 1293.0 1250.0Q1368 1255 1487 1255Q1598 1255 1668.0 1248.5Q1738 1242 1789.0 1218.0Q1840 1194 1892.5 1143.5Q1945 1093 2020 1005L1906 880ZM1523 960H1871L1913 1006Q1865 1062 1828.0 1095.5Q1791 1129 1752.0 1146.0Q1713 1163 1659.5 1169.0Q1606 1175 1523 1175ZM2381 452Q2332 512 2293.5 562.5Q2255 613 2222.5 659.5Q2190 706 2158 753Q2151 763 2152.5 776.0Q2154 789 2161 799Q2193 843 2236.5 880.0Q2280 917 2330 947L2375 892Q2344 875 2312.5 850.5Q2281 826 2253 797Q2230 773 2243 753Q2268 715 2304.0 665.0Q2340 615 2381 566Z" fill="currentColor"/></svg>
