<?xml version="1.0" encoding="UTF-8" standalone="no"?>
<!-- Created with Inkscape (http://www.inkscape.org/) -->

<svg
   width="100"
   height="100"
   viewBox="0 0 26.458333 26.458333"
   version="1.1"
   id="svg1"
   xmlns="http://www.w3.org/2000/svg"
   xmlns:svg="http://www.w3.org/2000/svg">
  <defs
     id="defs1" />
  <g
     id="layer5">
    <ellipse
       style="fill:none;stroke:currentColor;stroke-width:1.32292;stroke-dasharray:none;"
       id="path1-3"
       cx="13.230632"
       cy="13.230229"
       rx="3.1347075"
       ry="3.1345716" />
    <path
       id="path4-1"
       style="fill:none;stroke:currentColor;stroke-width:1.32292;stroke-linejoin:round;stroke-dasharray:none;"
       d="m 15.608003,3.1016445 a 2.3881427,2.3881427 0 0 1 -2.38811,2.3881689 2.3881427,2.3881427 0 0 1 -2.388169,-2.383231 10.404915,10.404915 0 0 0 -3.0818644,1.2800537 2.3881427,2.3881427 0 0 1 -0.00246,3.374897 2.3881427,2.3881427 0 0 1 -3.37178,0.00558 10.404915,10.404915 0 0 0 -1.2739416,3.0822759 2.3881427,2.3881427 0 0 1 2.3824081,2.388109 2.3881427,2.3881427 0 0 1 -2.3794686,2.388169 10.404915,10.404915 0 0 0 1.2776436,3.080511 2.3881427,2.3881427 0 0 1 1.6848927,-0.695635 2.3881427,2.3881427 0 0 1 1.6886538,0.699457 2.3881427,2.3881427 0 0 1 0.00486,3.372543 10.404915,10.404915 0 0 0 3.0830404,1.276233 2.3881427,2.3881427 0 0 1 2.388109,-2.385465 2.3881427,2.3881427 0 0 1 2.388169,2.38476 10.404915,10.404915 0 0 0 3.084921,-1.278526 2.3881427,2.3881427 0 0 1 -5.18e-4,-5.17e-4 2.3881427,2.3881427 0 0 1 0,-3.377364 2.3881427,2.3881427 0 0 1 1.688713,-0.699457 2.3881427,2.3881427 0 0 1 1.688359,0.699162 10.404915,10.404915 0 0 0 1.277469,-3.087565 2.3881427,2.3881427 0 0 1 -0.003,0 2.3881427,2.3881427 0 0 1 -2.388169,-2.38811 2.3881427,2.3881427 0 0 1 2.388169,-2.388167 2.3881427,2.3881427 0 0 1 3.44e-4,0 10.404915,10.404915 0 0 0 -1.280934,-3.0862732 2.3881427,2.3881427 0 0 1 -0.002,0.00195 2.3881427,2.3881427 0 0 1 -3.377365,0 2.3881427,2.3881427 0 0 1 -0.0011,-3.376308 10.404915,10.404915 0 0 0 -3.0868,-1.2751745 z" />
  </g>
</svg>
