<svg xmlns="http://www.w3.org/2000/svg" viewBox="75.0 -1925.0 2449.9 2449.9"><path transform="scale(1 -1)" d="M330 667Q296 667 270.0 681.0Q244 695 244 729Q244 763 275 792L1153 1660Q1196 1703 1228.5 1721.5Q1261 1740 1300 1740Q1339 1740 1371.5 1721.5Q1404 1703 1447 1660L2325 792Q2356 763 2356 729Q2356 695 2330.5 681.0Q2305 667 2270 667H2071L1300 1427L529 667ZM716 -185Q687 -185 660.0 -183.5Q633 -182 609 -182Q503 -182 468.5 -166.0Q434 -150 434 -105Q434 -13 480.5 42.0Q527 97 597 97Q635 97 660.0 85.5Q685 74 716 74Q747 74 771.0 85.0Q795 96 834 96Q878 96 925.0 77.0Q972 58 1005.0 31.0Q1038 4 1038 -19V-185ZM694 223Q678 223 666.5 234.5Q655 246 655 262V373H805V223ZM1038 -262H1562V-205H1038ZM1053 -147H1547V-92H1053ZM873 223V373H1023V262Q1023 246 1011.5 234.5Q1000 223 984 223ZM655 443V554Q655 570 666.5 581.5Q678 593 694 593H805V443ZM873 443V593H984Q1000 593 1011.5 581.5Q1023 570 1023 554V443ZM958 -340V-182H973V-92H458V712L538 773V-14H2062V773L2142 712V-92H1627V-182H1642V-340ZM1113 -34V509Q1113 580 1170.0 630.5Q1227 681 1300 681Q1374 681 1430.5 630.5Q1487 580 1487 509V-34ZM1406 276Q1421 276 1431.5 286.5Q1442 297 1442 312Q1442 327 1431.5 337.5Q1421 348 1406 348Q1391 348 1380.5 337.5Q1370 327 1370 312Q1370 297 1380.5 286.5Q1391 276 1406 276ZM1562 -185V-19Q1562 4 1595.0 31.0Q1628 58 1675.5 77.0Q1723 96 1766 96Q1805 96 1829.0 85.0Q1853 74 1884 74Q1916 74 1940.5 85.5Q1965 97 2003 97Q2074 97 2120.0 42.0Q2166 -13 2166 -105Q2166 -150 2132.0 -166.0Q2098 -182 1991 -182Q1967 -182 1940.0 -183.5Q1913 -185 1884 -185ZM1616 223Q1600 223 1588.5 234.5Q1577 246 1577 262V373H1727V223ZM571 1023V1431H541V1630L791 1632V1431H761V1221ZM1795 223V373H1945V262Q1945 246 1933.5 234.5Q1922 223 1906 223ZM1577 443V554Q1577 570 1588.5 581.5Q1600 593 1616 593H1727V443ZM1795 443V593H1906Q1922 593 1933.5 581.5Q1945 570 1945 554V443ZM365 745H496L1300 1540L2104 745H2235Q2243 745 2244.0 752.0Q2245 759 2238 766L1391 1603Q1356 1638 1337.5 1650.0Q1319 1662 1300 1662Q1281 1662 1262.5 1650.0Q1244 1638 1209 1603L362 766Q355 759 356.0 752.0Q357 745 365 745Z" fill="currentColor"/></svg>
