<?xml version="1.0" encoding="UTF-8" standalone="no"?>
<!-- Created with Inkscape (http://www.inkscape.org/) -->

<svg
   width="1000"
   height="1000"
   viewBox="0 0 10.416667 10.416667"
   version="1.1"
   id="svg1"
   xmlns="http://www.w3.org/2000/svg"
   xmlns:svg="http://www.w3.org/2000/svg">
  <defs
     id="defs1" />
  <g
     id="layer1">
    <rect
       style="opacity:1;fill:#808080;fill-opacity:1;stroke-width:0.0104167"
       id="rect1"
       width="10.416667"
       x="0"
       y="0"
       height="10.416667" />
    <path
       id="rect4"
       style="opacity:1;fill:#ffffff;fill-opacity:1;stroke-width:0.0112846"
       d="M 3.9675117,2.4220446 3.2484693,4.6690519 H 3.6259665 L 4.2142787,2.9613264 h 2.0060858 l 0.570336,1.7077255 H 7.1681977 L 6.4491554,2.4220446 Z m -0.7215,2.4267677 c -0.5872059,0 -1.0599379,0.472732 -1.0599379,1.0599378 v 1.0259344 c 0,0.5872058 0.472732,1.0599378 1.0599379,1.0599378 h 3.9246436 c 0.5872059,0 1.0599379,-0.472732 1.0599379,-1.0599378 V 5.9087501 c 0,-0.5872058 -0.472732,-1.0599378 -1.0599379,-1.0599378 z m 0.3372441,0.5792539 c 0.2836816,1.2e-6 0.5136506,0.2299702 0.5136518,0.5136518 -1.2e-6,0.2836815 -0.2299702,0.5136506 -0.5136518,0.5136518 -0.2836883,8.5e-6 -0.5136681,-0.2299634 -0.5136693,-0.5136518 1.2e-6,-0.2836885 0.229981,-0.5136603 0.5136693,-0.5136518 z m 3.2501554,0 C 7.1170995,5.4280577 7.3470793,5.6580295 7.3470805,5.941718 7.3470793,6.2254064 7.1170995,6.4553783 6.8334112,6.4553698 6.5497296,6.4553686 6.3197606,6.2253995 6.3197594,5.941718 6.3197606,5.6580364 6.5497296,5.4280674 6.8334112,5.4280662 Z M 3.05707,7.1649325 H 7.359597 V 7.4419113 H 3.05707 Z" />
  </g>
</svg>
