<?xml version="1.0" encoding="UTF-8" standalone="no"?>
<!-- Created with Inkscape (http://www.inkscape.org/) -->

<svg
   width="490.58335"
   height="490.58335"
   viewBox="0 0 490.58335 490.58335"
   version="1.1"
   id="svg1"
   sodipodi:docname="icon_dark.svg"
   inkscape:version="1.4.4 (dcaf3e7d9e, 2026-05-05)"
   xmlns:inkscape="http://www.inkscape.org/namespaces/inkscape"
   xmlns:sodipodi="http://sodipodi.sourceforge.net/DTD/sodipodi-0.dtd"
   xmlns="http://www.w3.org/2000/svg"
   xmlns:svg="http://www.w3.org/2000/svg">
  <sodipodi:namedview
     id="namedview1"
     pagecolor="#ffffff"
     bordercolor="#000000"
     borderopacity="0.25"
     inkscape:showpageshadow="2"
     inkscape:pageopacity="0.0"
     inkscape:pagecheckerboard="0"
     inkscape:deskcolor="#d1d1d1"
     inkscape:zoom="1.0222524"
     inkscape:cx="51.35718"
     inkscape:cy="123.74635"
     inkscape:window-width="2327"
     inkscape:window-height="1230"
     inkscape:window-x="0"
     inkscape:window-y="0"
     inkscape:window-maximized="1"
     inkscape:current-layer="layer1" />
  <defs
     id="defs1" />
  <g
     id="layer1"
     transform="translate(83.3, 133.3)">
    <rect
       style="fill:#404040;fill-opacity:1;stroke:none;stroke-width:12.5;stroke-linecap:round;stroke-linejoin:round;stroke-dasharray:none;stroke-opacity:1;paint-order:markers stroke fill"
       id="rect8"
       width="490.58334"
       height="490.58334"
       x="-83.3"
       y="-133.3" />
    <path
       style="fill:none;fill-opacity:1;stroke:#ffffff;stroke-width:12.5;stroke-linecap:round;stroke-dasharray:none;stroke-opacity:1;paint-order:markers stroke fill"
       d="m 161.9053,158.95852 -93.29368,3.1e-4 c -14.939993,4e-5 -22.67412,-1.95127 -22.67412,-22.67413 0,-11.00313 5.79476,-28.58696 16.504696,-28.58696 h 15.291468 c 3.001587,0 4.984407,-3.85915 6.521557,-6.52156 5.379053,-9.316821 15.41094,-23.367103 25.423309,-23.367103 h 18.30914 c 17.06583,0 14.45811,31.739033 25.27263,31.739033 9.45446,0 12.97242,1.48303 16.32001,7.28122 2.665,4.61594 2.28476,17.591 4.57361,26.13311 2.93649,10.95914 6.06149,15.99608 27.56121,15.99608 h 76.28899"
       id="path2" />
    <path
       style="fill:none;fill-opacity:1;stroke:#ffffff;stroke-width:12.5;stroke-linecap:round;stroke-linejoin:round;stroke-dasharray:none;stroke-opacity:1;paint-order:markers stroke fill"
       d="M 154.75666,66.46831 173.06884,92.812999 218.64583,25.938"
       id="path3" />
  </g>
</svg>
